<svg width="1200" height="820" viewBox="0 0 1200 820" fill="none" xmlns="http://www.w3.org/2000/svg">
  <rect width="1200" height="820" rx="24" fill="#F8FAFC"/>
  <rect x="56" y="48" width="1088" height="724" rx="20" fill="white" stroke="#CBD5E1" stroke-width="2"/>
  <rect x="88" y="84" width="220" height="20" rx="10" fill="#C7D2FE"/>
  <rect x="88" y="118" width="330" height="12" rx="6" fill="#E2E8F0"/>
  <rect x="88" y="164" width="1024" height="1" fill="#E2E8F0"/>

  <rect x="88" y="192" width="110" height="14" rx="7" fill="#E9D5FF"/>
  <rect x="246" y="192" width="400" height="14" rx="7" fill="#DBEAFE"/>
  <rect x="806" y="192" width="120" height="14" rx="7" fill="#FCE7F3"/>
  <rect x="962" y="192" width="120" height="14" rx="7" fill="#DCFCE7"/>

  <rect x="88" y="230" width="1024" height="52" rx="12" fill="#F8FAFC" stroke="#E2E8F0"/>
  <rect x="104" y="246" width="74" height="12" rx="6" fill="#CBD5E1"/>
  <rect x="246" y="246" width="420" height="12" rx="6" fill="#E2E8F0"/>
  <rect x="806" y="246" width="96" height="12" rx="6" fill="#FBCFE8"/>
  <rect x="962" y="246" width="104" height="12" rx="6" fill="#BBF7D0"/>

  <rect x="88" y="294" width="1024" height="52" rx="12" fill="#F8FAFC" stroke="#E2E8F0"/>
  <rect x="104" y="310" width="74" height="12" rx="6" fill="#CBD5E1"/>
  <rect x="246" y="310" width="480" height="12" rx="6" fill="#E2E8F0"/>
  <rect x="806" y="310" width="96" height="12" rx="6" fill="#FECACA"/>
  <rect x="962" y="310" width="104" height="12" rx="6" fill="#BFDBFE"/>

  <rect x="88" y="358" width="1024" height="52" rx="12" fill="#F8FAFC" stroke="#E2E8F0"/>
  <rect x="104" y="374" width="74" height="12" rx="6" fill="#CBD5E1"/>
  <rect x="246" y="374" width="360" height="12" rx="6" fill="#E2E8F0"/>
  <rect x="806" y="374" width="96" height="12" rx="6" fill="#FBCFE8"/>
  <rect x="962" y="374" width="104" height="12" rx="6" fill="#BBF7D0"/>

  <rect x="88" y="446" width="320" height="132" rx="18" fill="#EEF2FF" stroke="#C7D2FE"/>
  <rect x="108" y="470" width="124" height="14" rx="7" fill="#A5B4FC"/>
  <rect x="108" y="502" width="260" height="10" rx="5" fill="#C7D2FE"/>
  <rect x="108" y="526" width="220" height="10" rx="5" fill="#C7D2FE"/>

  <rect x="428" y="446" width="320" height="132" rx="18" fill="#F0FDF4" stroke="#BBF7D0"/>
  <rect x="448" y="470" width="124" height="14" rx="7" fill="#86EFAC"/>
  <rect x="448" y="502" width="260" height="10" rx="5" fill="#BBF7D0"/>
  <rect x="448" y="526" width="220" height="10" rx="5" fill="#BBF7D0"/>

  <rect x="768" y="446" width="344" height="132" rx="18" fill="#FFF7ED" stroke="#FED7AA"/>
  <rect x="788" y="470" width="124" height="14" rx="7" fill="#FDBA74"/>
  <rect x="788" y="502" width="280" height="10" rx="5" fill="#FED7AA"/>
  <rect x="788" y="526" width="240" height="10" rx="5" fill="#FED7AA"/>

  <rect x="88" y="610" width="1024" height="118" rx="18" fill="#F8FAFC" stroke="#E2E8F0"/>
  <rect x="112" y="634" width="180" height="14" rx="7" fill="#CBD5E1"/>
  <rect x="112" y="666" width="944" height="10" rx="5" fill="#E2E8F0"/>
  <rect x="112" y="690" width="820" height="10" rx="5" fill="#E2E8F0"/>
</svg>
